{
  "accessors": [
    {
      "bufferView": 2,
      "componentType": 5126,
      "count": 278,
      "max": [
        12.157384872436523,
        7.0835165977478027,
        5.6244916915893555
      ],
      "min": [
        -12.157384872436523,
        -1.2378045320510864,
        0.058348774909973145
      ],
      "type": "VEC3"
    },
    {
      "bufferView": 2,
      "byteOffset": 3336,
      "componentType": 5126,
      "count": 278,
      "max": [
        0.99161696434020996,
        0.99995201826095581,
        1
      ],
      "min": [
        -0.99321264028549194,
        -0.99995201826095581,
        -1
      ],
      "type": "VEC3"
    },
    {
      "bufferView": 3,
      "componentType": 5126,
      "count": 278,
      "max": [
        0.99917799234390259,
        0.99983996152877808,
        0.99389952421188354,
        1
      ],
      "min": [
        -0.99939888715744019,
        -0.99983996152877808,
        -0.68026560544967651,
        -1
      ],
      "type": "VEC4"
    },
    {
      "bufferView": 3,
      "byteOffset": 4448,
      "componentType": 5126,
      "count": 278,
      "max": [
        0.88235294818878174,
        0.51372551918029785,
        0.47450980544090271,
        1
      ],
      "min": [
        0.4117647111415863,
        0.12549020349979401,
        0.070588238537311554,
        1
      ],
      "type": "VEC4"
    },
    {
      "bufferView": 1,
      "componentType": 5126,
      "count": 278,
      "max": [
        1.3897709846496582,
        1
      ],
      "min": [
        -0.073993407189846039,
        -0.045902866870164871
      ],
      "type": "VEC2"
    },
    {
      "bufferView": 0,
      "componentType": 5125,
      "count": 852,
      "max": [
        277
      ],
      "min": [
        0
      ],
      "type": "SCALAR"
    }
  ],
  "asset": {
    "extras": {
      "author": "zhixson (https://sketchfab.com/zhixson)",
      "license": "CC-BY-4.0 (http://creativecommons.org/licenses/by/4.0/)",
      "source": "https://sketchfab.com/models/4eaa8a603b6a42218c8a94edde2999e0",
      "title": "Junk Food - Household Props Challenge"
    },
    "generator": "Sketchfab-3.51.0",
    "version": "2.0"
  },
  "bufferViews": [
    {
      "buffer": 0,
      "byteLength": 3408,
      "byteOffset": 0,
      "name": "floatBufferViews",
      "target": 34963
    },
    {
      "buffer": 0,
      "byteLength": 2224,
      "byteOffset": 3408,
      "byteStride": 8,
      "name": "floatBufferViews",
      "target": 34962
    },
    {
      "buffer": 0,
      "byteLength": 6672,
      "byteOffset": 5632,
      "byteStride": 12,
      "name": "floatBufferViews",
      "target": 34962
    },
    {
      "buffer": 0,
      "byteLength": 8896,
      "byteOffset": 12304,
      "byteStride": 16,
      "name": "floatBufferViews",
      "target": 34962
    }
  ],
  "buffers": [
    {
      "byteLength": 21200,
      "uri": "scene.bin"
    }
  ],
  "extensionsRequired": [
    "KHR_materials_pbrSpecularGlossiness"
  ],
  "extensionsUsed": [
    "KHR_materials_pbrSpecularGlossiness"
  ],
  "materials": [
    {
      "doubleSided": true,
      "extensions": {
        "KHR_materials_pbrSpecularGlossiness": {
          "diffuseFactor": [
            0.58799999999999997,
            0.58799999999999997,
            0.58799999999999997,
            1
          ],
          "glossinessFactor": 0.34999999999999998,
          "specularFactor": [
            0.038300304899999998,
            0.038300304899999998,
            0.038300304899999998
          ]
        }
      },
      "name": "Hot_Dog"
    }
  ],
  "meshes": [
    {
      "name": "Hot_Dog_Hot_Dog_0",
      "primitives": [
        {
          "attributes": {
            "COLOR_0": 3,
            "NORMAL": 1,
            "POSITION": 0,
            "TANGENT": 2,
            "TEXCOORD_0": 4
          },
          "indices": 5,
          "material": 0,
          "mode": 4
        }
      ]
    }
  ],
  "nodes": [
    {
      "children": [
        1
      ],
      "name": "RootNode (gltf orientation matrix)",
      "rotation": [
        -0.70710678118654746,
        -0,
        -0,
        0.70710678118654757
      ]
    },
    {
      "children": [
        2
      ],
      "name": "RootNode (model correction matrix)"
    },
    {
      "children": [
        3
      ],
      "matrix": [
        1,
        0,
        0,
        0,
        0,
        0,
        1,
        0,
        0,
        -1,
        0,
        0,
        0,
        0,
        0,
        1
      ],
      "name": "83b297386f0d40a58cad52ffe20a86eb.fbx"
    },
    {
      "children": [
        4
      ],
      "name": "RootNode"
    },
    {
      "children": [
        5
      ],
      "matrix": [
        1,
        0,
        0,
        0,
        0,
        2.2204460492503131e-16,
        -1,
        0,
        0,
        1,
        2.2204460492503131e-16,
        0,
        44.148120880126953,
        0.065492868423461914,
        2.384185791015625e-07,
        1
      ],
      "name": "Hot_Dog"
    },
    {
      "children": [
        6
      ],
      "matrix": [
        1,
        0,
        -0,
        0,
        0,
        1,
        0,
        0,
        0,
        0,
        1,
        0,
        0,
        -2.9228560924530029,
        -0.065492868423461914,
        1
      ],
      "name": ""
    },
    {
      "mesh": 0,
      "name": "Hot_Dog_Hot_Dog_0"
    }
  ],
  "scene": 0,
  "scenes": [
    {
      "name": "OSG_Scene",
      "nodes": [
        0
      ]
    }
  ]
}

